<?xml version="1.0" encoding="utf-8"?>
<!-- Generator: Adobe Illustrator 24.0.3, SVG Export Plug-In . SVG Version: 6.00 Build 0)  -->
<svg version="1.1" id="レイヤー_1" xmlns="http://www.w3.org/2000/svg" xmlns:xlink="http://www.w3.org/1999/xlink" x="0px"
	 y="0px" viewBox="0 0 110 111" style="enable-background:new 0 0 110 111;" xml:space="preserve">
<style type="text/css">
	.st0{fill:#F1ED62;}
</style>
<path class="st0" d="M65,110c-0.3,0-0.7,0-1,0c-2.9-3.1-5.8-6.2-8.6-9.3c-3.6,3.5-6.5,6.4-9.4,9.3c-0.3,0-0.7,0-1,0
	c-1.7-3.9-3.5-7.8-5.3-11.9c-4.3,1.8-8,3.4-12.1,5.1c-0.6-4.7-1.2-8.8-1.7-13c-4.5,0.2-8.5,0.4-12.9,0.7c1-4.6,1.9-8.6,2.9-12.8
	c-4.2-1.4-8.1-2.6-12.4-4c2.5-4,4.7-7.4,7.1-11C6.8,60.1,3.5,57.6,0,55c3.6-2.8,6.9-5.3,10.4-8c-2.4-3.7-4.6-7.2-7-11
	c4.5-1.4,8.3-2.7,12.4-4c-1-4.3-1.9-8.4-2.9-12.8c4.5,0.2,8.6,0.4,12.9,0.6c0.6-4.4,1.1-8.5,1.7-13c4.2,1.8,8,3.4,11.9,5
	c2-4,3.9-7.7,5.9-11.8c3.3,3.2,6.4,6.1,9.5,9.1C58.4,5.9,61.3,3,64.5,0c2.1,4.2,4,7.9,6,11.7c4.1-1.7,7.8-3.3,11.9-5
	c0.6,4.7,1.2,8.8,1.7,13.1c4.5-0.2,8.5-0.4,12.9-0.7c-1,4.6-1.9,8.6-2.9,12.8c4.2,1.4,8.1,2.6,12.4,4c-2.5,4-4.7,7.4-7.2,11.2
	c3.8,2.6,7.2,5,10.6,7.3c0,0.3,0,0.7,0,1c-3.5,2.4-7,4.9-10.6,7.4c2.6,4.1,4.8,7.5,7.1,11.2C102,75.5,98,76.7,94.1,78
	c1,4.5,1.9,8.5,2.9,12.9c-4.7-0.2-8.8-0.5-13-0.7c-0.6,4.6-1.1,8.6-1.7,13c-4.4-1.8-8.1-3.4-12.2-5.1C68.3,102.4,66.6,106.2,65,110z
	"/>
</svg>
